# xmcd
#
# Track frame offsets: 
#        150
#        17712
#        37593
#        56123
#        70795
#        88458
#        104371
#        122150
#        138759
#        155155
#        171365
#        190729
#        214493
#        231834
#        251822
#        267035
#        282713
#        304298
#        323343
#
# Disc length: 4530 seconds
#
# Revision: 0
# Processed by: cddbd v1.5.1PL2 Copyright (c) Steve Scherf et al.
# Submitted via: ExactAudioCopy v0.95b3
#
DISCID=1b11b013
DTITLE=Various Artist - Promo Only Apr '06 Rhythm Radio
DYEAR=2006
DGENRE=Top 40
TTITLE0=Busta Rhymes f May J Blige, Rah Digga and Missy Elliott - TOUCH 
TTITLE0=IT (PO Clean Edit)
TTITLE1=Purple Ribbon All-Stars - BODY ROCK (PO Clean Edit)
TTITLE2=T.I. - WHAT YOU KNOW (PO Clean Edit)
TTITLE3=Pink - STUPID GIRLS 
TTITLE4=Avant - 4 MINUTES (PO Clean Edit)
TTITLE5=Da Muzicianz f Mr. Collipark - CAMERA PHONE (PO Clean Edit)
TTITLE6=Mobb Deep - PUT EM IN THEIR PLACE (PO Clean Edit)
TTITLE7=Paul Wall - GIRL
TTITLE8=Ne-Yo - WHEN YOU'RE MAD (PO Clean Edit)
TTITLE9=Field Mob f Ciara - SO WHAT (PO Clean Edit)
TTITLE10=Jamie Foxx f Twista - DJ PLAY A LOVE SONG (PO Clean Edit)
TTITLE11=Tamar f Prince - BEAUTIFUL, LOVED and BLESSED
TTITLE12=Dre f Rick Ross - CHEVY RIDIN' HIGH (PO Clean Edit)
TTITLE13=DJ Khafed f Lil Wayne, Paul Wall, Ft Joe, Rick Ross, Pitbull 
TTITLE13=/ HOLLA AT ME
TTITLE14=Shawnna - GETTIN' SOME
TTITLE15=Marcos Hernandez/ THEY WAY I DO
TTITLE16=B.G. f Mannie Fresh - MOVE AROUND
TTITLE17=Rick Ross - HUSTLIN'
TTITLE18=Your Leek - JIGGLE IT
EXTD=
EXTT0=
EXTT1=
EXTT2=
EXTT3=
EXTT4=
EXTT5=
EXTT6=
EXTT7=
EXTT8=
EXTT9=
EXTT10=
EXTT11=
EXTT12=
EXTT13=
EXTT14=
EXTT15=
EXTT16=
EXTT17=
EXTT18=
PLAYORDER=
